<svg width="20" height="20" viewBox="0 0 20 20" fill="none" xmlns="http://www.w3.org/2000/svg">
<path d="M16.6667 2.5H5.57752C5.23845 2.50113 4.9077 2.60513 4.62901 2.79827C4.35031 2.99141 4.1368 3.26458 4.01669 3.58167L1.71919 9.7075C1.6843 9.80107 1.66652 9.90014 1.66669 10V11.6667C1.66669 12.5858 2.41419 13.3333 3.33335 13.3333H8.01002L7.07502 16.1392C6.99166 16.3897 6.96889 16.6564 7.00858 16.9175C7.04827 17.1785 7.14929 17.4264 7.30335 17.6408C7.61669 18.0742 8.12169 18.3333 8.65669 18.3333H10C10.2475 18.3333 10.4817 18.2233 10.6409 18.0333L14.5575 13.3333H16.6667C17.5859 13.3333 18.3334 12.5858 18.3334 11.6667V4.16667C18.3334 3.2475 17.5859 2.5 16.6667 2.5ZM9.60919 16.6667H8.65502L9.95669 12.7633C9.99839 12.6381 10.0098 12.5048 9.98986 12.3743C9.96996 12.2439 9.91935 12.12 9.84222 12.0129C9.76508 11.9058 9.66361 11.8186 9.54617 11.7584C9.42872 11.6982 9.29866 11.6668 9.16669 11.6667H3.33335V10.1508L5.57752 4.16667H13.3334V12.1983L9.60919 16.6667ZM15 11.6667V4.16667H16.6667L16.6675 11.6667H15Z" fill="#545454"/>
</svg>
