<svg width="20" height="20" viewBox="0 0 20 20" fill="none" xmlns="http://www.w3.org/2000/svg">
<path d="M16.6667 6.66666H11.99L12.9259 3.86082C13.0942 3.35416 13.0092 2.79249 12.6967 2.35916C12.3842 1.92582 11.8775 1.66666 11.3434 1.66666H10C9.75252 1.66666 9.51835 1.77666 9.35919 1.96666L5.44252 6.66666H3.33335C2.41419 6.66666 1.66669 7.41416 1.66669 8.33332V15.8333C1.66669 16.7525 2.41419 17.5 3.33335 17.5H14.4225C14.7616 17.4989 15.0923 17.3949 15.371 17.2017C15.6497 17.0086 15.8632 16.7354 15.9834 16.4183L18.2809 10.2925C18.3157 10.1989 18.3335 10.0998 18.3334 9.99999V8.33332C18.3334 7.41416 17.5859 6.66666 16.6667 6.66666ZM3.33335 8.33332H5.00002V15.8333H3.33335V8.33332ZM16.6667 9.84916L14.4225 15.8333H6.66669V7.80166L10.39 3.33332H11.345L10.0434 7.23582C10.0011 7.36109 9.98931 7.49462 10.009 7.62535C10.0286 7.75607 10.0792 7.88023 10.1564 7.98752C10.2336 8.09482 10.3353 8.18215 10.4531 8.24229C10.5708 8.30243 10.7012 8.33364 10.8334 8.33332H16.6667V9.84916Z" fill="#545454"/>
</svg>
