<svg width="20" height="20" viewBox="0 0 20 20" fill="none" xmlns="http://www.w3.org/2000/svg">
<path d="M10 13.3333C11.8384 13.3333 13.3334 11.8383 13.3334 10V5C13.3334 3.1525 11.8459 1.64917 10.0175 1.64917C9.95886 1.64952 9.90044 1.65651 9.84335 1.67C8.98773 1.71149 8.18079 2.0803 7.5895 2.70013C6.99821 3.31996 6.66782 4.14337 6.66669 5V10C6.66669 11.8383 8.16169 13.3333 10 13.3333Z" fill="black"/>
<path d="M9.16665 16.6092V18.3333H10.8333V16.6092C14.1158 16.1967 16.6666 13.3942 16.6666 10H15C15 12.7575 12.7575 15 9.99998 15C7.24248 15 4.99998 12.7575 4.99998 10H3.33331C3.33331 13.3933 5.88415 16.1967 9.16665 16.6092Z" fill="black"/>
</svg>
