<svg width="20" height="20" viewBox="0 0 20 20" fill="none" xmlns="http://www.w3.org/2000/svg">
<path d="M10 11.6667C10.442 11.6667 10.866 11.4911 11.1785 11.1785C11.4911 10.866 11.6667 10.442 11.6667 10C11.6667 9.55798 11.4911 9.13406 11.1785 8.8215C10.866 8.50894 10.442 8.33334 10 8.33334C9.55798 8.33334 9.13406 8.50894 8.8215 8.8215C8.50894 9.13406 8.33334 9.55798 8.33334 10C8.33334 10.442 8.50894 10.866 8.8215 11.1785C9.13406 11.4911 9.55798 11.6667 10 11.6667ZM5.00001 11.6667C5.44204 11.6667 5.86596 11.4911 6.17852 11.1785C6.49108 10.866 6.66668 10.442 6.66668 10C6.66668 9.55798 6.49108 9.13406 6.17852 8.8215C5.86596 8.50894 5.44204 8.33334 5.00001 8.33334C4.55798 8.33334 4.13406 8.50894 3.8215 8.8215C3.50894 9.13406 3.33334 9.55798 3.33334 10C3.33334 10.442 3.50894 10.866 3.8215 11.1785C4.13406 11.4911 4.55798 11.6667 5.00001 11.6667V11.6667ZM15 11.6667C15.442 11.6667 15.866 11.4911 16.1785 11.1785C16.4911 10.866 16.6667 10.442 16.6667 10C16.6667 9.55798 16.4911 9.13406 16.1785 8.8215C15.866 8.50894 15.442 8.33334 15 8.33334C14.558 8.33334 14.1341 8.50894 13.8215 8.8215C13.5089 9.13406 13.3333 9.55798 13.3333 10C13.3333 10.442 13.5089 10.866 13.8215 11.1785C14.1341 11.4911 14.558 11.6667 15 11.6667V11.6667Z" fill="#545454"/>
</svg>
