<svg width="20" height="20" viewBox="0 0 20 20" fill="none" xmlns="http://www.w3.org/2000/svg">
<path d="M13.3333 3.33334C13.5543 3.33334 13.7663 3.42114 13.9226 3.57742C14.0788 3.7337 14.1666 3.94566 14.1666 4.16668V7.66668L18.5108 4.62501C18.5733 4.58122 18.6466 4.55542 18.7227 4.55043C18.7988 4.54543 18.8748 4.56143 18.9425 4.59667C19.0101 4.63192 19.0668 4.68506 19.1063 4.7503C19.1459 4.81555 19.1667 4.89039 19.1666 4.96668V15.0333C19.1667 15.1096 19.1459 15.1845 19.1063 15.2497C19.0668 15.315 19.0101 15.3681 18.9425 15.4033C18.8748 15.4386 18.7988 15.4546 18.7227 15.4496C18.6466 15.4446 18.5733 15.4188 18.5108 15.375L14.1666 12.3333V15.8333C14.1666 16.0544 14.0788 16.2663 13.9226 16.4226C13.7663 16.5789 13.5543 16.6667 13.3333 16.6667H1.66665C1.44563 16.6667 1.23367 16.5789 1.07739 16.4226C0.92111 16.2663 0.833313 16.0544 0.833313 15.8333V4.16668C0.833313 3.94566 0.92111 3.7337 1.07739 3.57742C1.23367 3.42114 1.44563 3.33334 1.66665 3.33334H13.3333ZM12.5 5.00001H2.49998V15H12.5V5.00001ZM6.66665 6.66668H8.33331V9.16668H10.8333V10.8333H8.33248L8.33331 13.3333H6.66665L6.66581 10.8333H4.16665V9.16668H6.66665V6.66668ZM17.5 7.36751L14.1666 9.70084V10.2992L17.5 12.6325V7.36668V7.36751Z" fill="#333333"/>
</svg>
