<svg width="89" height="20" viewBox="0 0 89 20" fill="none" xmlns="http://www.w3.org/2000/svg">
<g clip-path="url(#clip0_8:2)">
<path d="M27.5693 3.09138C27.4076 2.49382 27.0921 1.94906 26.6544 1.51134C26.2166 1.07362 25.6719 0.758223 25.0743 0.596552C22.8865 0 14.0824 0 14.0824 0C14.0824 0 5.27792 0.0181035 3.0905 0.614655C2.49297 0.776353 1.94822 1.09177 1.5105 1.52948C1.07279 1.9672 0.757375 2.51195 0.595677 3.10948C-0.0660472 6.99655 -0.322771 12.9191 0.61378 16.6505C0.775478 17.248 1.09089 17.7928 1.52861 18.2305C1.96633 18.6682 2.51107 18.9836 3.10861 19.1453C5.29619 19.7419 14.1005 19.7419 14.1005 19.7419C14.1005 19.7419 22.9048 19.7419 25.0924 19.1453C25.6899 18.9836 26.2347 18.6682 26.6724 18.2305C27.1101 17.7928 27.4255 17.248 27.5872 16.6505C28.285 12.7581 28.5002 6.83914 27.5691 3.09155L27.5693 3.09138Z" fill="#FF0000"/>
<path d="M11.2802 14.1014L18.5839 9.87103L11.2802 5.64052V14.1014Z" fill="white"/>
<path d="M84.6981 5.73104C85.6562 5.73104 86.3793 5.91173 86.8855 6.25518C87.3917 6.5988 87.7534 7.14104 87.9703 7.88242C88.1872 8.62363 88.2776 9.63587 88.2776 10.9376V13.0529H83.6314V13.7036L83.7038 15.4935C83.7579 15.8912 83.8485 16.1805 83.9929 16.3612C84.1378 16.5421 84.3726 16.6324 84.68 16.6324C85.0959 16.6324 85.3852 16.4698 85.5297 16.1445C85.6924 15.819 85.7647 15.2766 85.7828 14.5354L88.1872 14.68C88.2053 14.7885 88.2054 14.9331 88.2054 15.1138C88.2054 16.2528 87.8979 17.1026 87.2652 17.6629C86.6324 18.2233 85.7647 18.5126 84.6257 18.5126C83.2517 18.5126 82.2936 18.0788 81.7512 17.2291C81.209 16.3793 80.9197 15.0414 80.9197 13.2517V11.0641C80.981 7.99087 81.5216 5.74001 84.6981 5.73104V5.73104ZM51.2705 5.96604V15.0235C51.2705 15.5659 51.3247 15.9636 51.4512 16.1986C51.7079 16.7012 52.3733 16.5728 52.7348 16.3252C52.9436 16.1841 53.1118 15.9909 53.2229 15.7648V5.96587H55.989V18.3136H53.8195L53.5845 16.795H53.5303C52.9338 17.934 52.0478 18.5124 50.8728 18.5124C49.0641 18.5079 48.6216 17.2048 48.5162 15.8814L48.5093 15.7881C48.4963 15.5877 48.4887 15.3869 48.4864 15.186V5.96604H51.2703H51.2705ZM65.5347 5.96604V15.0235C65.5347 15.5659 65.5888 15.9636 65.7153 16.1986C65.9722 16.7012 66.6374 16.5728 66.999 16.3252C67.2077 16.1841 67.3759 15.9909 67.4871 15.7648V5.96587H70.2531V18.3136H68.0836L67.8486 16.795H67.7945C67.1979 17.934 66.3119 18.5124 65.1369 18.5124C63.3283 18.5079 62.8857 17.2048 62.7804 15.8814L62.7735 15.7881C62.7604 15.5877 62.7528 15.3869 62.7505 15.186V5.96604H65.5347ZM43.2435 5.73104C44.1474 5.73104 44.8886 5.91173 45.431 6.29139C45.9733 6.67104 46.3891 7.24966 46.6422 8.04501C46.8953 8.84052 47.0219 9.90708 47.0219 11.2269V13.0166C47.0219 14.3364 46.8953 15.385 46.6422 16.1804C46.3891 16.976 45.9914 17.5545 45.431 17.9341C44.8707 18.2957 44.1112 18.4945 43.1712 18.4945C42.1948 18.5126 41.4355 18.3138 40.8752 17.9522C40.3148 17.5726 39.9169 16.994 39.6821 16.1986C39.4469 15.4031 39.3385 14.3545 39.3385 13.0348V11.2448C39.3385 9.92501 39.465 8.84035 39.7362 8.04483C40.0074 7.23139 40.4231 6.65277 41.0017 6.29139C41.5802 5.92966 42.3214 5.73087 43.2435 5.73087V5.73104ZM74.5921 0.77742V7.2857H74.6102C74.8633 6.8157 75.1886 6.43604 75.6407 6.14673C76.0628 5.86289 76.5601 5.71181 77.0688 5.71294C77.7378 5.71294 78.244 5.89363 78.6236 6.23708C79.0033 6.5988 79.2745 7.15914 79.4371 7.93656C79.5948 8.68966 79.6845 9.73121 79.69 11.0447L79.6902 11.1728V13.1252C79.6902 14.951 79.4552 16.3071 79.0212 17.1748C78.5695 18.0426 77.8824 18.4766 76.9422 18.4766C76.4181 18.4766 75.9479 18.35 75.5141 18.115C75.1304 17.8914 74.8123 17.5708 74.5917 17.1854L74.5559 17.1205H74.5017L74.2124 18.2957H71.9164V0.777593H74.5921V0.77742ZM63.5278 1.41018V3.65173H60.7798V18.3136H58.0681V3.6519H55.3021V1.41035H63.5279L63.5278 1.41018ZM33.7159 1.41018L33.7176 1.41708C33.744 1.53449 34.1095 3.15949 34.5116 5.05277L34.5433 5.20276L34.5912 5.42949L34.6233 5.58173L34.6393 5.65811L34.6714 5.81121L34.6874 5.88794L34.7193 6.04156L34.7659 6.26621C35.0374 7.57725 35.2966 8.89208 35.4516 9.83483H35.524C35.6724 8.98914 35.8881 7.9069 36.1181 6.8019L36.1785 6.51328C36.2088 6.3688 36.2391 6.22432 36.2698 6.08018L36.3171 5.85656C36.6294 4.39222 36.9511 2.92989 37.2821 1.46966L37.2872 1.44639L37.2955 1.41018H40.0616L36.8616 12.8179V18.2957H34.1317V12.8359H34.1136L30.9498 1.41001H33.7159V1.41018ZM43.1891 7.64725C42.8095 7.64725 42.5564 7.84621 42.3938 8.26208C42.231 8.67776 42.1588 9.31052 42.1588 10.1966V14.0472C42.1588 14.9512 42.231 15.62 42.3757 16.0179C42.5203 16.4155 42.7916 16.6145 43.1891 16.6145C43.5688 16.6145 43.84 16.4155 44.0028 16.0179C44.1655 15.62 44.2378 14.9512 44.2378 14.0472V10.1964C44.2378 9.31052 44.1653 8.65966 44.0028 8.2619C43.84 7.84621 43.5688 7.64725 43.1891 7.64725V7.64725ZM75.0802 8.00897C74.8598 8.21242 74.7031 8.46328 74.6098 8.7769L74.5921 8.84052V15.855C74.8162 16.2347 75.1345 16.4878 75.6948 16.5059C75.9841 16.5059 76.219 16.3974 76.4 16.1805C76.5807 15.9636 76.7072 15.6019 76.7795 15.0957C76.849 14.6098 76.8852 13.9405 76.8879 13.0881V11.3716C76.8879 10.3954 76.8517 9.65414 76.7976 9.12983C76.7252 8.60552 76.635 8.22587 76.4722 8.00897C76.1576 7.5569 75.4779 7.56242 75.0802 8.00897ZM84.644 7.59311C84.3366 7.61121 84.1195 7.70156 83.9929 7.86432C83.8485 8.04501 83.7579 8.31621 83.7038 8.71397C83.6505 9.10363 83.6322 10.4657 83.6314 10.5202V11.4078H85.6562V10.625V10.64C85.655 10.9136 85.6493 10.4812 85.6369 9.95035L85.6352 9.87897C85.6238 9.41242 85.6072 8.89225 85.584 8.71397C85.5297 8.29811 85.4391 8.0088 85.2947 7.84621C85.15 7.68345 84.9331 7.59311 84.6438 7.59311H84.644Z" fill="#282828"/>
</g>
<defs>
<clipPath id="clip0_8:2">
<rect width="88.28" height="20" fill="white"/>
</clipPath>
</defs>
</svg>
